HIERARCHY
ROOT Hips
{
	OFFSET 0.000000 100.481300 0.000000
	CHANNELS 6 Xposition Yposition Zposition Xrotation Yrotation Zrotation 
	JOINT Spine
	{
		OFFSET -0.279200 12.230698 -2.892100
		CHANNELS 3 Xrotation Yrotation Zrotation
		JOINT Spine1
		{
			OFFSET -0.232667 10.192268 -1.242267
			CHANNELS 3 Xrotation Yrotation Zrotation
			JOINT Spine1_split
			{
				OFFSET -0.232667 10.192268 -1.242267
				CHANNELS 3 Xrotation Yrotation Zrotation
				JOINT Spine2
				{
					OFFSET -0.232667 10.192268 -1.242267
					CHANNELS 3 Xrotation Yrotation Zrotation
					JOINT Neck
					{
						OFFSET -0.418800 17.814194 8.416900
						CHANNELS 3 Xrotation Yrotation Zrotation
						JOINT Head
						{
							OFFSET 0.000000 7.031097 3.806800
							CHANNELS 3 Xrotation Yrotation Zrotation
							JOINT HeadTop_End
							{
								OFFSET 0.000000 24.646606 12.978600
								CHANNELS 3 Xrotation Yrotation Zrotation
								End Site
								{
									OFFSET 0.000000 0.000000 0.000000
								}
							}
						}
					}
					JOINT LeftShoulder
					{
						OFFSET 8.476499 7.247704 -3.868750
						CHANNELS 3 Xrotation Yrotation Zrotation
						JOINT LeftShoulder_split
						{
							OFFSET 8.476499 7.247704 -3.868750
							CHANNELS 3 Xrotation Yrotation Zrotation
							JOINT LeftArm
							{
								OFFSET 9.308998 -2.777710 0.208600
								CHANNELS 3 Xrotation Yrotation Zrotation
								JOINT LeftForeArm
								{
									OFFSET 29.972298 0.000000 0.000000
									CHANNELS 3 Xrotation Yrotation Zrotation
									JOINT LeftHand
									{
										OFFSET 26.026505 0.000000 0.000000
										CHANNELS 3 Xrotation Yrotation Zrotation
										JOINT LeftHandThumb1
										{
											OFFSET 12.240501 -7.147949 9.207150
											CHANNELS 3 Xrotation Yrotation Zrotation
											JOINT LeftHandThumb2
											{
												OFFSET 4.138618 -2.389435 2.389433
												CHANNELS 3 Xrotation Yrotation Zrotation
												JOINT LeftHandThumb3
												{
													OFFSET 2.726913 -1.574387 1.574386
													CHANNELS 3 Xrotation Yrotation Zrotation
													JOINT LeftHandThumb4
													{
														OFFSET 3.941010 -2.275345 2.275342
														CHANNELS 3 Xrotation Yrotation Zrotation
														End Site
														{
															OFFSET 0.000000 0.000000 0.000000
														}
													}
												}
											}
										}
										JOINT LeftHandIndex1
										{
											OFFSET 24.424698 -1.985611 5.953459
											CHANNELS 3 Xrotation Yrotation Zrotation
											JOINT LeftHandIndex2
											{
												OFFSET 6.426697 0.000000 0.000000
												CHANNELS 3 Xrotation Yrotation Zrotation
												JOINT LeftHandIndex3
												{
													OFFSET 5.337898 0.000000 0.000000
													CHANNELS 3 Xrotation Yrotation Zrotation
													JOINT LeftHandIndex4
													{
														OFFSET 4.409401 0.000000 0.000000
														CHANNELS 3 Xrotation Yrotation Zrotation
														End Site
														{
															OFFSET 0.000000 0.000000 0.000000
														}
													}
												}
											}
										}
										JOINT LeftHandMiddle1
										{
											OFFSET 23.810104 0.000000 0.000000
											CHANNELS 3 Xrotation Yrotation Zrotation
											JOINT LeftHandMiddle2
											{
												OFFSET 7.176498 0.000000 0.000000
												CHANNELS 3 Xrotation Yrotation Zrotation
												JOINT LeftHandMiddle3
												{
													OFFSET 6.774902 0.000000 0.000000
													CHANNELS 3 Xrotation Yrotation Zrotation
													JOINT LeftHandMiddle4
													{
														OFFSET 5.403328 0.000000 0.000000
														CHANNELS 3 Xrotation Yrotation Zrotation
														End Site
														{
															OFFSET 0.000000 0.000000 0.000000
														}
													}
												}
											}
										}
										JOINT LeftHandRing1
										{
											OFFSET 22.908401 -0.839279 -6.020567
											CHANNELS 3 Xrotation Yrotation Zrotation
											JOINT LeftHandRing2
											{
												OFFSET 6.337502 0.000000 0.000000
												CHANNELS 3 Xrotation Yrotation Zrotation
												JOINT LeftHandRing3
												{
													OFFSET 5.779297 0.000000 0.000000
													CHANNELS 3 Xrotation Yrotation Zrotation
													JOINT LeftHandRing4
													{
														OFFSET 4.965698 0.000000 0.000000
														CHANNELS 3 Xrotation Yrotation Zrotation
														End Site
														{
															OFFSET 0.000000 0.000000 0.000000
														}
													}
												}
											}
										}
										JOINT LeftHandPinky1
										{
											OFFSET 20.037003 -1.530319 -10.950146
											CHANNELS 3 Xrotation Yrotation Zrotation
											JOINT LeftHandPinky2
											{
												OFFSET 5.254700 0.000000 0.000000
												CHANNELS 3 Xrotation Yrotation Zrotation
												JOINT LeftHandPinky3
												{
													OFFSET 4.810204 0.000000 0.000000
													CHANNELS 3 Xrotation Yrotation Zrotation
													JOINT LeftHandPinky4
													{
														OFFSET 3.647202 0.000000 0.000000
														CHANNELS 3 Xrotation Yrotation Zrotation
														End Site
														{
															OFFSET 0.000000 0.000000 0.000000
														}
													}
												}
											}
										}
									}
								}
							}
						}
					}
					JOINT RightShoulder
					{
						OFFSET -7.570500 7.247704 -3.868750
						CHANNELS 3 Xrotation Yrotation Zrotation
						JOINT RightShoulder_split
						{
							OFFSET -7.570500 7.247704 -3.868750
							CHANNELS 3 Xrotation Yrotation Zrotation
							JOINT RightArm
							{
								OFFSET -9.308998 -2.777710 0.208500
								CHANNELS 3 Xrotation Yrotation Zrotation
								JOINT RightForeArm
								{
									OFFSET -29.972300 0.000000 0.000000
									CHANNELS 3 Xrotation Yrotation Zrotation
									JOINT RightHand
									{
										OFFSET -26.026505 0.000000 0.000000
										CHANNELS 3 Xrotation Yrotation Zrotation
										JOINT RightHandThumb1
										{
											OFFSET -12.240601 -7.148026 9.207092
											CHANNELS 3 Xrotation Yrotation Zrotation
											JOINT RightHandThumb2
											{
												OFFSET -4.138618 -2.389435 2.389433
												CHANNELS 3 Xrotation Yrotation Zrotation
												JOINT RightHandThumb3
												{
													OFFSET -2.726974 -1.574417 1.574421
													CHANNELS 3 Xrotation Yrotation Zrotation
													JOINT RightHandThumb4
													{
														OFFSET -3.941010 -2.275345 2.275343
														CHANNELS 3 Xrotation Yrotation Zrotation
														End Site
														{
															OFFSET 0.000000 0.000000 0.000000
														}
													}
												}
											}
										}
										JOINT RightHandIndex1
										{
											OFFSET -24.424698 -1.985657 5.953444
											CHANNELS 3 Xrotation Yrotation Zrotation
											JOINT RightHandIndex2
											{
												OFFSET -6.426697 0.000000 0.000000
												CHANNELS 3 Xrotation Yrotation Zrotation
												JOINT RightHandIndex3
												{
													OFFSET -5.337898 0.000000 0.000000
													CHANNELS 3 Xrotation Yrotation Zrotation
													JOINT RightHandIndex4
													{
														OFFSET -4.409401 0.000000 0.000000
														CHANNELS 3 Xrotation Yrotation Zrotation
														End Site
														{
															OFFSET 0.000000 0.000000 0.000000
														}
													}
												}
											}
										}
										JOINT RightHandMiddle1
										{
											OFFSET -23.810097 0.000000 0.000000
											CHANNELS 3 Xrotation Yrotation Zrotation
											JOINT RightHandMiddle2
											{
												OFFSET -7.176498 0.000000 0.000000
												CHANNELS 3 Xrotation Yrotation Zrotation
												JOINT RightHandMiddle3
												{
													OFFSET -6.774902 0.000000 0.000000
													CHANNELS 3 Xrotation Yrotation Zrotation
													JOINT RightHandMiddle4
													{
														OFFSET -5.403328 0.000000 0.000000
														CHANNELS 3 Xrotation Yrotation Zrotation
														End Site
														{
															OFFSET 0.000000 0.000000 0.000000
														}
													}
												}
											}
										}
										JOINT RightHandRing1
										{
											OFFSET -22.908302 -0.839325 -6.020576
											CHANNELS 3 Xrotation Yrotation Zrotation
											JOINT RightHandRing2
											{
												OFFSET -6.337502 0.000000 0.000000
												CHANNELS 3 Xrotation Yrotation Zrotation
												JOINT RightHandRing3
												{
													OFFSET -5.779297 0.000000 0.000000
													CHANNELS 3 Xrotation Yrotation Zrotation
													JOINT RightHandRing4
													{
														OFFSET -4.965698 0.000000 0.000000
														CHANNELS 3 Xrotation Yrotation Zrotation
														End Site
														{
															OFFSET 0.000000 0.000000 0.000000
														}
													}
												}
											}
										}
										JOINT RightHandPinky1
										{
											OFFSET -20.037003 -1.530334 -10.950259
											CHANNELS 3 Xrotation Yrotation Zrotation
											JOINT RightHandPinky2
											{
												OFFSET -5.254700 0.000000 0.000000
												CHANNELS 3 Xrotation Yrotation Zrotation
												JOINT RightHandPinky3
												{
													OFFSET -4.810204 0.000000 0.000000
													CHANNELS 3 Xrotation Yrotation Zrotation
													JOINT RightHandPinky4
													{
														OFFSET -3.647202 0.000000 0.000000
														CHANNELS 3 Xrotation Yrotation Zrotation
														End Site
														{
															OFFSET 0.000000 0.000000 0.000000
														}
													}
												}
											}
										}
									}
								}
							}
						}
					}
				}
			}
		}
	}
	JOINT LeftUpLeg
	{
		OFFSET 15.427100 -6.655098 0.678600
		CHANNELS 3 Xrotation Yrotation Zrotation
		JOINT LeftLeg
		{
			OFFSET 4.081073 -39.591068 13.024000
			CHANNELS 3 Xrotation Yrotation Zrotation
			JOINT LeftFoot
			{
				OFFSET -4.081074 -37.707932 -15.979700
				CHANNELS 3 Xrotation Yrotation Zrotation
				JOINT LeftToeBase
				{
					OFFSET 5.346399 -15.068900 20.645000
					CHANNELS 3 Xrotation Yrotation Zrotation
					JOINT LeftToe_End
					{
						OFFSET 2.754700 0.931300 11.300900
						CHANNELS 3 Xrotation Yrotation Zrotation
						End Site
						{
							OFFSET 0.000000 0.000000 0.000000
						}
					}
				}
			}
		}
	}
	JOINT RightUpLeg
	{
		OFFSET -15.569500 -6.655098 0.678600
		CHANNELS 3 Xrotation Yrotation Zrotation
		JOINT RightLeg
		{
			OFFSET -4.081825 -39.591045 13.023800
			CHANNELS 3 Xrotation Yrotation Zrotation
			JOINT RightFoot
			{
				OFFSET 4.081824 -37.707954 -15.979600
				CHANNELS 3 Xrotation Yrotation Zrotation
				JOINT RightToeBase
				{
					OFFSET -5.346400 -15.068900 20.645000
					CHANNELS 3 Xrotation Yrotation Zrotation
					JOINT RightToe_End
					{
						OFFSET -2.754700 0.931300 11.300900
						CHANNELS 3 Xrotation Yrotation Zrotation
						End Site
						{
							OFFSET 0.000000 0.000000 0.000000
						}
					}
				}
			}
		}
	}
}
MOTION
Frames: 4
Frame Time: 0.016667
5.618381 87.807487 0.525596 -63.025161 -92.807135 -64.139670 5.412563 -2.258957 -7.352620 2.771441 -0.553953 -1.077814 0.000000 0.000000 0.000000 2.777686 -0.510267 -1.087488 -12.273406 6.004519 4.761555 20.231324 76.958016 -25.708550 0.000001 -0.000000 -0.000000 5.516886 -2.188424 12.208350 0.000000 0.000000 0.000000 -41.899369 5.599303 2.227377 0.045096 -12.980518 -0.289987 -49.394176 -3.550607 -0.088081 40.109948 -15.297228 -0.360434 5.639926 28.097740 11.338729 1.088510 40.896325 22.734046 -0.000002 0.000003 0.000003 6.882284 2.840005 -61.140493 8.247961 7.640057 -89.897912 2.146192 8.173410 -41.827809 0.000003 0.000001 -0.000003 -2.345527 4.688862 -62.655265 8.754189 9.897072 -87.051266 1.995350 4.929256 -37.483416 0.000000 -0.000001 0.000002 -9.042475 10.045598 -60.766192 8.524018 9.508883 -66.892892 6.576538 9.896786 -70.385127 -0.000000 -0.000001 0.000001 -17.946786 14.754984 -51.485922 8.868342 8.666998 -84.811989 4.540450 8.852607 -59.152976 -0.000000 -0.000000 0.000000 -2.478560 1.878753 -16.638407 0.000000 0.000000 0.000000 -51.925881 54.163776 47.616609 1.362562 130.520325 0.246817 -70.593366 -0.218324 -24.603885 0.277501 -1.521509 -1.570516 7.169044 -41.689648 -15.773499 -4.517967 11.064480 4.673954 -0.000000 -0.000001 0.000001 6.412845 -12.738386 14.389576 9.941743 -7.465164 101.743229 4.405028 -9.947435 61.138874 -0.000002 0.000001 -0.000001 2.653199 -11.302323 44.730933 9.916115 -9.880659 94.351215 8.462603 -8.530823 83.992236 0.000000 -0.000002 0.000000 2.140167 -7.454474 61.765018 9.609247 -8.992476 89.388694 11.175477 -10.370849 97.638162 -0.000001 0.000003 0.000000 -4.886658 -23.798122 68.396169 13.518297 -7.949267 112.864949 8.544480 -10.117954 85.305648 0.000000 0.000000 -0.000000 -28.892301 34.985042 36.985273 24.236230 -10.275065 0.008345 -3.456583 7.108773 -18.219212 -1.836406 -0.000641 -0.000029 -0.000000 -0.000001 -0.000000 -32.584643 -11.994894 -21.696058 15.871603 10.565615 -3.393071 7.234273 13.537638 20.307894 -0.001635 -0.000362 0.000002 0.000000 -0.000000 0.000000 
5.619086 87.813583 0.525388 -63.007020 -92.801630 -64.117438 5.412504 -2.258967 -7.352503 2.771400 -0.556391 -1.077454 0.000000 0.000000 0.000000 2.777600 -0.514368 -1.086865 -12.261162 5.997542 4.760196 20.271081 76.969975 -25.754760 0.000000 0.000000 -0.000000 5.518635 -2.184577 12.217441 0.000000 0.000000 0.000000 -41.910205 5.611451 2.220996 0.057256 -13.133513 -0.286648 -49.443364 -3.460247 0.032228 40.109944 -15.297231 -0.360434 5.639933 28.097735 11.338730 1.088510 40.896318 22.734044 -0.000001 0.000001 0.000000 6.882283 2.840006 -61.140486 8.247959 7.640053 -89.897912 2.146192 8.173410 -41.827805 -0.000001 -0.000001 0.000001 -2.345528 4.688862 -62.655265 8.754190 9.897069 -87.051273 1.995353 4.929257 -37.483416 -0.000000 -0.000002 0.000001 -9.042479 10.045601 -60.766192 8.524017 9.508881 -66.892906 6.576540 9.896788 -70.385127 0.000001 -0.000000 -0.000001 -17.946790 14.754988 -51.485925 8.868342 8.666998 -84.811982 4.540451 8.852606 -59.152990 -0.000000 -0.000001 0.000000 -2.479250 1.875582 -16.638722 0.000000 0.000000 0.000000 -51.759945 54.134454 47.334212 -0.786858 130.482691 1.826146 -72.076302 -0.111488 -24.458189 0.277501 -1.521509 -1.570516 7.169044 -41.689648 -15.773502 -4.517966 11.064483 4.673952 -0.000001 -0.000002 0.000001 6.412844 -12.738387 14.389574 9.941743 -7.465164 101.743229 4.405027 -9.947439 61.138874 0.000001 -0.000001 0.000001 2.653199 -11.302324 44.730929 9.916116 -9.880660 94.351222 8.462607 -8.530817 83.992236 -0.000000 -0.000001 0.000001 2.140170 -7.454475 61.765025 9.609249 -8.992478 89.388694 11.175474 -10.370847 97.638162 -0.000000 0.000000 -0.000000 -4.886660 -23.798122 68.396162 13.518298 -7.949267 112.864949 8.544481 -10.117954 85.305648 0.000000 -0.000001 -0.000001 -28.874925 34.989949 36.968949 24.222059 -10.271386 0.015996 -3.449645 7.108871 -18.223011 -1.700144 -0.000676 -0.000057 0.000000 -0.000005 -0.000000 -32.571236 -11.994451 -21.701736 15.856405 10.564031 -3.384927 7.240929 13.537533 20.304769 0.014854 -0.000368 0.000034 0.000000 0.000000 0.000000 
5.619958 87.820541 0.525760 -63.027859 -92.794759 -64.134097 5.412506 -2.258957 -7.352394 2.771261 -0.563903 -1.076318 0.000000 0.000000 0.000000 2.777361 -0.526631 -1.085019 -12.248462 5.976466 4.762428 20.362382 77.005841 -25.853033 -0.000000 -0.000001 0.000000 5.523687 -2.173158 12.243789 0.000000 0.000000 0.000000 -41.919272 5.652337 2.202117 0.064104 -13.136972 -0.284910 -49.498586 -3.474570 0.031516 40.109951 -15.297226 -0.360435 5.639931 28.097735 11.338732 1.088512 40.896325 22.734044 -0.000002 -0.000000 0.000001 6.882283 2.840006 -61.140486 8.247961 7.640055 -89.897912 2.146190 8.173412 -41.827809 0.000001 0.000000 -0.000000 -2.345526 4.688862 -62.655265 8.754189 9.897071 -87.051273 1.995348 4.929257 -37.483416 0.000000 -0.000002 0.000003 -9.042478 10.045600 -60.766192 8.524017 9.508881 -66.892899 6.576537 9.896790 -70.385127 -0.000000 -0.000001 0.000001 -17.946786 14.754984 -51.485925 8.868342 8.666998 -84.811989 4.540450 8.852608 -59.152983 -0.000000 0.000000 -0.000001 -2.480386 1.866597 -16.643230 0.000000 0.000000 0.000000 -51.815799 54.140283 47.365231 -0.772592 130.490163 1.814561 -72.098432 -0.115892 -24.465721 0.277503 -1.521509 -1.570515 7.169044 -41.689648 -15.773502 -4.517969 11.064485 4.673956 0.000000 -0.000001 0.000001 6.412845 -12.738386 14.389576 9.941744 -7.465164 101.743229 4.405026 -9.947435 61.138874 0.000000 0.000000 0.000000 2.653198 -11.302323 44.730933 9.916113 -9.880661 94.351222 8.462610 -8.530822 83.992236 -0.000000 0.000001 -0.000001 2.140169 -7.454475 61.765025 9.609249 -8.992474 89.388701 11.175473 -10.370850 97.638162 -0.000000 -0.000001 0.000001 -4.886658 -23.798121 68.396169 13.518301 -7.949270 112.864949 8.544481 -10.117954 85.305648 -0.000000 -0.000001 -0.000001 -28.857628 34.995253 36.950620 24.206522 -10.269580 0.023953 -3.441683 7.108475 -18.225175 -1.637692 -0.000709 -0.000051 0.000000 0.000002 0.000000 -32.554430 -11.993972 -21.708974 15.838375 10.559974 -3.376845 7.247822 13.537021 20.303330 0.014668 -0.000368 -0.000031 -0.000000 -0.000000 0.000000 
5.620997 87.828125 0.526905 -63.102424 -92.786078 -64.204031 5.416254 -2.258144 -7.347296 2.770431 -0.576456 -1.075721 0.000000 0.000000 0.000000 2.777961 -0.546923 -1.081948 -12.234883 5.943168 4.765605 20.501228 77.063672 -25.999352 0.000000 0.000000 -0.000000 5.535945 -2.153917 12.285030 0.000000 0.000000 0.000000 -41.932051 5.710383 2.170936 0.070654 -13.142513 -0.283214 -49.551882 -3.487763 0.031484 40.109948 -15.297233 -0.360435 5.639926 28.097739 11.338730 1.088511 40.896325 22.734044 0.000002 -0.000001 -0.000000 6.882285 2.840007 -61.140493 8.247963 7.640056 -89.897912 2.146190 8.173412 -41.827809 0.000001 0.000000 -0.000001 -2.345526 4.688863 -62.655265 8.754189 9.897070 -87.051273 1.995352 4.929255 -37.483419 0.000000 0.000000 0.000001 -9.042477 10.045600 -60.766192 8.524016 9.508880 -66.892899 6.576541 9.896787 -70.385127 0.000001 0.000001 -0.000002 -17.946786 14.754986 -51.485925 8.868342 8.666999 -84.811989 4.540449 8.852607 -59.152990 -0.000001 0.000000 -0.000002 -2.482174 1.852228 -16.650709 0.000000 0.000000 0.000000 -51.874843 54.138733 47.397230 -0.753155 130.499206 1.799607 -72.124107 -0.115285 -24.456498 0.277499 -1.521509 -1.570515 7.169044 -41.689648 -15.773502 -4.517966 11.064482 4.673952 0.000000 -0.000002 -0.000001 6.412847 -12.738386 14.389576 9.941745 -7.465164 101.743229 4.405028 -9.947440 61.138874 -0.000000 -0.000001 -0.000000 2.653200 -11.302322 44.730936 9.916112 -9.880662 94.351222 8.462607 -8.530819 83.992243 0.000001 -0.000001 -0.000001 2.140168 -7.454475 61.765025 9.609251 -8.992478 89.388694 11.175475 -10.370849 97.638155 0.000001 -0.000001 -0.000001 -4.886658 -23.798122 68.396169 13.518302 -7.949267 112.864949 8.544481 -10.117952 85.305648 -0.000000 -0.000000 -0.000001 -28.841724 35.001410 36.931058 24.190469 -10.270647 0.032112 -3.433083 7.107320 -18.225112 -1.669473 -0.000677 -0.000016 0.000000 0.000001 0.000000 -32.534486 -11.993193 -21.718019 15.817994 10.553239 -3.368853 7.254432 13.536165 20.303702 0.013674 -0.000348 -0.000065 0.000000 0.000000 -0.000000 
